<?xml version="1.0" encoding="UTF-8"?>
<svg xmlns="http://www.w3.org/2000/svg" viewBox="0 0 286.65 63.8">
  <defs>
    <style>
      .cls-1 {
        isolation: isolate;
      }

      .cls-2 {
        mix-blend-mode: multiply;
      }
    </style>
  </defs>
  <g class="cls-1">
    <g id="Layer_2" data-name="Layer 2">
      <g id="Layer_1-2" data-name="Layer 1">
        <g class="cls-2">
          <g>
            <g>
              <path d="M277.24,0v.78h1.27v4.01h.96V.78h1.27v-.78h-3.51Z"/>
              <path d="M285.57,0l-1.52,3.55-1.52-3.55h-1.09v4.78h.96V1.67l1.28,3.11h.73l1.27-3.11v3.11h.96V0h-1.08Z"/>
            </g>
            <path d="M103.26,27.58c3.09-2.23,5.14-5.73,5.14-9.67,0-6.69-5.69-12.14-12.69-12.14h-38.78v43.59h38.78c6.99,0,12.69-5.42,12.69-12.11,0-3.97-2.05-7.47-5.14-9.67ZM61.8,10.64h33.92c4.29,0,7.82,3.26,7.82,7.27s-3.53,7.24-7.82,7.24h-33.92v-14.51ZM95.72,44.48h-33.92v-14.47h33.92c4.29,0,7.82,3.26,7.82,7.23s-3.53,7.24-7.82,7.24Z"/>
            <path d="M160.02,27.58c3.09-2.23,5.14-5.73,5.14-9.67,0-6.69-5.69-12.14-12.69-12.14h-38.78v43.59h38.78c1.88,0,3.65-.39,5.25-1.08.78-.34,1.51-.75,2.2-1.23,3.17-2.2,5.24-5.77,5.24-9.8s-2.05-7.47-5.14-9.67ZM118.56,10.64h33.92c4.28,0,7.82,3.26,7.82,7.27s-3.54,7.24-7.82,7.24h-33.92v-14.51ZM152.47,44.48h-33.92v-14.47h33.92c4.28,0,7.82,3.26,7.82,7.23s-3.54,7.24-7.82,7.24Z"/>
            <path d="M223.74,5.87v43.48h4.87V5.87h-4.87ZM216.91,47.4l-1.84-4.25-5.56-12.89v-.04s-.53-1.17-.53-1.17l-.61-1.41-.83-1.92-.11-.26-.56-1.3-.7-1.63-.7-1.63-1.6-3.71-4.89-11.33h-13.34l-8.14,18.83-.5,1.16-1.71,3.97-1.62,3.76h0l-3.21,7.42h0s-.04.1-.04.1l-.11.26-.86,2.01-.51,1.18-.56,1.31-1.44,3.36-.03.09h5.27l.02-.04,1.73-4.01.66-1.53,1.03-2.37.51-1.18,1.29-2.97.18-.42,1.55-3.57.34-.8,1.16-2.69.51-1.17.44-1.03,1.49-3.45,5.77-13.37h6.96l3.85,8.93.94,2.17.15.34.24.56,1.24,2.88.45,1.05.2.48.33.76,1.03,2.37.1.22.49,1.14,6.11,14.18.67,1.56.83,1.93h5.32l-.83-1.93ZM269,5.87v43.48h4.87V5.87h-4.87Z"/>
            <path d="M45.26,5.84v43.49h4.88V5.84h-4.88ZM0,5.84v43.49h4.86V5.84H0Z"/>
            <path d="M50.14,25.39v1.52c-1.65-.2-3.27-.35-4.88-.47-17.72-1.28-32.99,2.13-40.4,4.12-.58.15-1.11.3-1.6.44v-4.86c.48-.13,1.02-.27,1.6-.41,7.53-1.82,22.62-3.81,40.4-1.18,1.6.24,3.23.51,4.88.83Z"/>
            <path d="M177,36.75c39.13-17.47,82.36-8.75,95.28-5.75v-4.86c-13.28-3.02-55.06-7.7-95.28,10.61Z"/>
          </g>
          <g>
            <path d="M49.91,63.67h-.93v-8.76h.93v8.76ZM55.54,55.76h-6.25v-.85h6.25v.85ZM55.35,59.94h-6.05v-.84h6.05v.84Z"/>
            <path d="M60.88,63.8c-.86,0-1.63-.19-2.29-.56-.67-.37-1.19-.89-1.56-1.57-.37-.68-.56-1.47-.56-2.39s.19-1.71.56-2.39c.37-.68.9-1.2,1.56-1.57.67-.37,1.43-.56,2.29-.56s1.65.19,2.31.56c.66.37,1.18.89,1.56,1.57.38.68.57,1.47.57,2.39s-.19,1.71-.57,2.39c-.38.68-.9,1.2-1.56,1.57-.66.37-1.43.56-2.31.56ZM60.88,62.9c.74,0,1.37-.14,1.88-.41s.91-.68,1.18-1.22.41-1.2.41-1.98-.14-1.46-.41-1.99c-.27-.53-.66-.93-1.18-1.21s-1.14-.41-1.88-.41-1.36.14-1.87.41c-.51.27-.9.68-1.17,1.21-.27.53-.4,1.19-.4,1.99s.13,1.44.4,1.98c.27.54.66.94,1.17,1.22.51.27,1.14.41,1.87.41Z"/>
            <path d="M67.49,63.67h-.93v-8.76h4.29c.61,0,1.15.1,1.61.3.46.2.82.49,1.08.86.26.37.39.83.39,1.37,0,.5-.11.92-.34,1.28-.23.36-.54.63-.94.83-.4.2-.88.3-1.43.32v.07c.29.08.52.21.71.39s.35.4.5.65l1.65,2.68h-1.07l-1.56-2.54c-.15-.24-.31-.44-.48-.59-.17-.15-.38-.27-.63-.34-.25-.07-.57-.11-.96-.11h-1.88v3.58ZM67.49,55.76v3.58h3.35c.69,0,1.21-.14,1.58-.42.36-.28.54-.74.54-1.37s-.18-1.07-.54-1.36c-.36-.29-.89-.43-1.58-.43h-3.35Z"/>
            <path d="M82.17,63.67h-4.73v-8.76h4.6c.53,0,.99.08,1.38.25.39.17.69.41.9.74.21.33.32.72.32,1.18,0,.5-.14.92-.43,1.27-.29.35-.73.58-1.33.67v.08c.68.11,1.19.36,1.53.74.34.38.51.85.51,1.41,0,.51-.11.94-.34,1.3-.23.36-.54.64-.95.83-.41.19-.89.29-1.45.29ZM78.37,55.76v2.97h3.52c.6,0,1.06-.12,1.37-.37.31-.24.46-.61.46-1.11s-.14-.89-.43-1.13c-.29-.24-.73-.36-1.32-.36h-3.6ZM78.37,59.52v3.29h3.73c.62,0,1.09-.14,1.41-.41.32-.27.48-.69.48-1.26s-.16-.98-.48-1.24c-.32-.26-.79-.39-1.4-.39h-3.73Z"/>
            <path d="M89.91,63.8c-.81,0-1.51-.15-2.1-.44-.59-.29-1.04-.72-1.37-1.27-.32-.56-.48-1.24-.48-2.04v-5.14h.93v5.1c0,.66.11,1.21.33,1.63.22.43.56.74,1,.94.44.2,1.01.3,1.69.3s1.24-.1,1.69-.3c.44-.2.78-.51,1-.94.22-.43.33-.97.33-1.63v-5.1h.93v5.14c0,.8-.16,1.48-.48,2.04-.32.56-.78.98-1.37,1.27-.59.29-1.29.44-2.1.44Z"/>
            <path d="M98.76,63.8c-.85,0-1.56-.13-2.12-.38-.56-.25-.98-.6-1.25-1.04-.27-.44-.41-.93-.41-1.48v-.08h.94v.17c0,.42.09.77.28,1.06.19.29.49.51.91.65.42.15.97.22,1.65.22.59,0,1.07-.05,1.44-.16.37-.1.65-.27.83-.49s.27-.5.27-.83c0-.49-.15-.84-.45-1.07s-.77-.4-1.42-.53l-1.86-.35c-.47-.1-.9-.23-1.29-.41-.39-.17-.7-.42-.93-.73-.23-.31-.35-.71-.35-1.2,0-.3.07-.59.2-.87.14-.28.34-.54.62-.77.28-.23.64-.41,1.09-.55.45-.14.99-.2,1.61-.2.83,0,1.5.13,2.03.39s.91.61,1.16,1.05c.25.44.38.93.38,1.46v.08h-.94v-.16c0-.42-.09-.77-.27-1.07-.18-.29-.47-.51-.86-.66-.39-.15-.91-.22-1.56-.22-.57,0-1.05.05-1.42.16-.38.11-.65.27-.83.48-.18.21-.27.48-.27.8s.07.58.2.78c.14.2.34.36.61.47.27.11.62.22,1.05.31l1.84.37c.52.1.98.24,1.36.43.38.19.68.44.9.75.21.31.32.69.32,1.14,0,.41-.12.8-.37,1.18-.24.37-.62.68-1.14.91-.51.23-1.18.35-1.99.35Z"/>
            <path d="M104.39,63.67h-.93v-8.76h.93v8.76Z"/>
            <path d="M106.87,63.67h-.93v-8.76h1.01l4.6,5.95,1.06,1.46h.08l-.03-1.44v-5.97h.93v8.76h-1.02l-4.56-5.88-1.1-1.48h-.07l.03,1.46v5.9Z"/>
            <path d="M116.07,63.67h-.93v-8.76h.93v8.76ZM121.8,55.76h-6.34v-.85h6.34v.85ZM121.6,59.68h-6.14v-.84h6.14v.84ZM121.8,63.67h-6.34v-.85h6.34v.85Z"/>
            <path d="M126.49,63.8c-.85,0-1.56-.13-2.12-.38-.56-.25-.98-.6-1.25-1.04-.27-.44-.41-.93-.41-1.48v-.08h.94v.17c0,.42.09.77.28,1.06.19.29.49.51.91.65.42.15.97.22,1.65.22.59,0,1.07-.05,1.44-.16.37-.1.65-.27.83-.49s.27-.5.27-.83c0-.49-.15-.84-.45-1.07s-.77-.4-1.42-.53l-1.86-.35c-.47-.1-.9-.23-1.29-.41-.39-.17-.7-.42-.93-.73-.23-.31-.35-.71-.35-1.2,0-.3.07-.59.2-.87.14-.28.34-.54.62-.77.28-.23.64-.41,1.09-.55.45-.14.99-.2,1.61-.2.83,0,1.5.13,2.03.39.52.26.91.61,1.16,1.05.25.44.38.93.38,1.46v.08h-.94v-.16c0-.42-.09-.77-.27-1.07-.18-.29-.47-.51-.86-.66-.39-.15-.91-.22-1.56-.22-.58,0-1.05.05-1.42.16-.38.11-.65.27-.83.48-.18.21-.27.48-.27.8s.07.58.2.78c.13.2.34.36.61.47.27.11.63.22,1.05.31l1.84.37c.52.1.98.24,1.36.43.38.19.68.44.9.75.21.31.32.69.32,1.14,0,.41-.12.8-.37,1.18-.24.37-.62.68-1.14.91-.51.23-1.18.35-1.99.35Z"/>
            <path d="M134.59,63.8c-.85,0-1.56-.13-2.12-.38-.56-.25-.98-.6-1.25-1.04-.27-.44-.41-.93-.41-1.48v-.08h.94v.17c0,.42.09.77.28,1.06.19.29.49.51.91.65.42.15.97.22,1.65.22.59,0,1.07-.05,1.44-.16.37-.1.65-.27.83-.49s.27-.5.27-.83c0-.49-.15-.84-.45-1.07s-.77-.4-1.42-.53l-1.86-.35c-.47-.1-.9-.23-1.29-.41-.39-.17-.7-.42-.93-.73-.23-.31-.35-.71-.35-1.2,0-.3.07-.59.2-.87.14-.28.34-.54.62-.77.28-.23.64-.41,1.09-.55.45-.14.99-.2,1.61-.2.83,0,1.5.13,2.03.39.52.26.91.61,1.16,1.05.25.44.38.93.38,1.46v.08h-.94v-.16c0-.42-.09-.77-.27-1.07-.18-.29-.47-.51-.86-.66-.39-.15-.91-.22-1.56-.22-.58,0-1.05.05-1.42.16-.38.11-.65.27-.83.48-.18.21-.27.48-.27.8s.07.58.2.78c.14.2.34.36.61.47.27.11.62.22,1.05.31l1.84.37c.52.1.98.24,1.36.43.38.19.68.44.9.75.21.31.32.69.32,1.14,0,.41-.12.8-.37,1.18-.24.37-.62.68-1.14.91-.51.23-1.18.35-1.99.35Z"/>
            <path d="M142.65,63.67h-.94v-8.76h.94v8.76ZM145.52,63.67h-3.41v-.85h3.41c.75,0,1.37-.13,1.86-.39.49-.26.85-.65,1.1-1.17.24-.52.37-1.18.37-1.97s-.12-1.46-.37-1.98c-.24-.52-.61-.91-1.1-1.16-.49-.26-1.11-.39-1.86-.39h-3.41v-.85h3.41c.88,0,1.64.18,2.28.54.64.36,1.14.86,1.49,1.52.35.65.53,1.43.53,2.33s-.18,1.67-.53,2.33c-.35.65-.85,1.16-1.49,1.52-.64.36-1.4.54-2.28.54Z"/>
            <path d="M151.99,63.67h-.93v-8.76h.93v8.76ZM157.71,55.76h-6.34v-.85h6.34v.85ZM157.52,59.68h-6.14v-.84h6.14v.84ZM157.71,63.67h-6.34v-.85h6.34v.85Z"/>
            <path d="M163.33,63.67h-1.29l-3.86-8.76h1.1l3.39,7.82h.07l3.37-7.82h1.09l-3.86,8.76Z"/>
            <path d="M168.86,63.67h-.93v-8.76h.93v8.76ZM174.59,55.76h-6.34v-.85h6.34v.85ZM174.4,59.68h-6.14v-.84h6.14v.84ZM174.59,63.67h-6.34v-.85h6.34v.85Z"/>
            <path d="M176.81,63.67h-.93v-8.76h.93v8.76ZM182.37,63.67h-6.2v-.85h6.2v.85Z"/>
            <path d="M187.51,63.8c-.86,0-1.63-.19-2.29-.56-.67-.37-1.19-.89-1.56-1.57-.37-.68-.56-1.47-.56-2.39s.19-1.71.56-2.39c.37-.68.9-1.2,1.56-1.57.67-.37,1.43-.56,2.29-.56s1.65.19,2.31.56c.66.37,1.18.89,1.56,1.57.38.68.57,1.47.57,2.39s-.19,1.71-.57,2.39c-.38.68-.9,1.2-1.56,1.57-.66.37-1.43.56-2.31.56ZM187.51,62.9c.74,0,1.37-.14,1.88-.41.51-.27.91-.68,1.18-1.22.27-.54.41-1.2.41-1.98s-.14-1.46-.41-1.99c-.27-.53-.66-.93-1.18-1.21-.51-.27-1.14-.41-1.88-.41s-1.36.14-1.87.41-.9.68-1.17,1.21c-.27.53-.4,1.19-.4,1.99s.13,1.44.4,1.98c.27.54.66.94,1.17,1.22s1.14.41,1.87.41Z"/>
            <path d="M194.12,63.67h-.93v-8.76h.93v8.76ZM197.22,60.83h-3.62v-.85h3.54c.78,0,1.36-.17,1.76-.5.4-.33.6-.87.6-1.62s-.2-1.27-.6-1.6c-.4-.34-.99-.5-1.76-.5h-3.54v-.85h3.62c.63,0,1.19.12,1.67.35.49.23.87.57,1.14,1.01.27.44.41.97.41,1.6s-.14,1.16-.41,1.6c-.27.44-.66.78-1.14,1.01-.49.24-1.05.35-1.67.35Z"/>
            <path d="M202.39,63.67h-.93v-8.76h1.27l2.94,5.71.77,1.62h.07l.76-1.62,2.93-5.71h1.28v8.76h-.93v-6.17l.03-1.18h-.08l-.55,1.18-2.92,5.65h-1.12l-2.92-5.65-.56-1.18h-.07l.03,1.18v6.17Z"/>
            <path d="M213.96,63.67h-.93v-8.76h.93v8.76ZM219.68,55.76h-6.34v-.85h6.34v.85ZM219.49,59.68h-6.14v-.84h6.14v.84ZM219.68,63.67h-6.34v-.85h6.34v.85Z"/>
            <path d="M221.91,63.67h-.93v-8.76h1.01l4.6,5.95,1.06,1.46h.08l-.03-1.44v-5.97h.93v8.76h-1.02l-4.56-5.88-1.1-1.48h-.07l.03,1.46v5.9Z"/>
            <path d="M237.67,55.76h-8.13v-.85h8.13v.85ZM234.08,63.67h-.93v-8.76h.93v8.76Z"/>
          </g>
        </g>
      </g>
    </g>
  </g>
</svg>