<svg width="64" height="64" viewBox="0 0 64 64" fill="none" xmlns="http://www.w3.org/2000/svg">
<path d="M29.3329 8.14648C24.8409 8.64849 20.5819 10.4087 17.0461 13.2244C13.5103 16.0402 10.8414 19.7971 9.34664 24.0628C7.85185 28.3285 7.59189 32.9295 8.59668 37.3364C9.60148 41.7433 11.8302 45.777 15.0263 48.9731C18.2224 52.1692 22.2561 54.3979 26.663 55.4027C31.0699 56.4075 35.6709 56.1476 39.9366 54.6528C44.2023 53.158 47.9592 50.4891 50.775 46.9533C53.5907 43.4175 55.3509 39.1585 55.8529 34.6665H29.3329V8.14648Z" stroke="#E1DCDC" stroke-width="4" stroke-linecap="round" stroke-linejoin="round"/>
<path d="M54.6347 23.9999H40V9.36523C43.3744 10.5624 46.4391 12.4973 48.9708 15.0291C51.5026 17.5608 53.4375 20.6255 54.6347 23.9999Z" stroke="#E1DCDC" stroke-width="4" stroke-linecap="round" stroke-linejoin="round"/>
</svg>
