<svg width="50" height="50" viewBox="0 0 50 50" fill="none" xmlns="http://www.w3.org/2000/svg">
<path fill-rule="evenodd" clip-rule="evenodd" d="M17.2281 36.3813H4.37396C3.83854 36.3813 3.83854 37.1959 4.37396 37.1959H17.2281C17.763 37.1959 17.763 36.3813 17.2281 36.3813ZM23.4167 22.4079C23.424 22.7225 23.4891 22.9522 23.7521 23.1626C23.9672 23.3345 24.2135 23.3938 24.4839 23.3391C31.3318 21.9605 37.0057 18.923 42.4594 14.3636C43.0193 13.8954 43.8411 13.9292 44.3604 14.4412L45.5104 15.5751C45.774 15.835 46.2266 15.7011 46.2901 15.3235L47.3526 8.97872C47.4062 8.65841 47.1328 8.38966 46.8141 8.44747L40.4839 9.59903C40.1135 9.66622 39.9771 10.1193 40.2432 10.3818L41.0031 11.1308C41.6042 11.7235 41.5599 12.6964 40.9078 13.2318C35.7927 17.4329 30.5078 20.2251 24.1286 21.5121C23.699 21.5985 23.413 21.9626 23.4167 22.4079ZM22.4661 22.5089C22.4542 22.01 22.563 21.6079 22.863 21.2329C23.125 20.9053 23.5 20.6678 23.9422 20.5787C30.1589 19.324 35.3135 16.5933 40.3031 12.4964C40.5203 12.3183 40.5292 12.0027 40.3349 11.8105L39.5755 11.0615C38.7578 10.2548 39.1865 8.86726 40.3167 8.66153L46.6458 7.50997C47.612 7.33393 48.4557 8.16726 48.2937 9.13497L47.2312 15.4798C47.0422 16.6095 45.6604 17.061 44.8422 16.2542L43.6927 15.1204C43.5208 14.9511 43.2568 14.9412 43.0724 15.0949C37.501 19.7522 31.6781 22.8605 24.6714 24.272C23.513 24.5058 22.4661 23.6032 22.4661 22.5089ZM43.5057 22.1485H46.8807C47.7292 22.1485 48.4208 22.8407 48.4208 23.6886V40.974C48.4208 41.822 47.7286 42.5141 46.8807 42.5141H43.5057C42.6578 42.5141 41.9656 41.822 41.9656 40.974V23.6886C41.9651 22.8407 42.6573 22.1485 43.5057 22.1485ZM46.8807 23.1042C47.201 23.1042 47.4651 23.3683 47.4651 23.6886V40.974C47.4651 41.2943 47.201 41.5584 46.8807 41.5584H43.5057C43.1854 41.5584 42.9214 41.2943 42.9214 40.974V23.6886C42.9214 23.3683 43.1854 23.1042 43.5057 23.1042H46.8807ZM34.1089 25.2579H37.4839C38.3318 25.2579 39.024 25.9501 39.024 26.798V40.974C39.024 41.822 38.3318 42.5141 37.4839 42.5141H34.1089C33.2609 42.5141 32.5688 41.822 32.5688 40.974V26.798C32.5688 25.9501 33.2609 25.2579 34.1089 25.2579ZM37.4839 26.2136H34.1089C33.7885 26.2136 33.5245 26.4777 33.5245 26.798V40.974C33.5245 41.2943 33.7885 41.5584 34.1089 41.5584H37.4839C37.8042 41.5584 38.0682 41.2943 38.0682 40.974V26.798C38.0682 26.4777 37.8042 26.2136 37.4839 26.2136ZM24.7125 30.2792H28.0875C28.9354 30.2792 29.6276 30.9714 29.6276 31.8193V40.9746C29.6276 41.8225 28.9349 42.5147 28.0875 42.5147H24.7125C23.8646 42.5147 23.1724 41.8225 23.1724 40.9746V31.8193C23.1719 30.9709 23.8646 30.2792 24.7125 30.2792ZM28.0875 31.235H24.7125C24.3922 31.235 24.1281 31.499 24.1281 31.8193V40.9746C24.1281 41.2949 24.3922 41.5589 24.7125 41.5589H28.0875C28.4073 41.5589 28.6719 41.2949 28.6719 40.9746V31.8193C28.6719 31.499 28.4078 31.235 28.0875 31.235ZM12.9099 35.4256V32.7662C12.9099 32.1371 13.8661 32.1371 13.8661 32.7662V35.4251H15.6786C17.8823 32.235 13.7427 27.3558 10.787 24.348C10.4568 24.0121 10.7661 23.4522 11.224 23.5475C12.3922 23.7897 13.4672 23.6183 14.4146 22.9178C14.5073 22.849 14.6167 22.8188 14.7234 22.8246C15.2411 22.8324 15.6594 22.9558 15.9776 23.1954C16.2766 23.4204 16.4745 23.7318 16.5708 24.1298C16.9495 24.4527 17.3141 24.6345 17.6641 24.674C18.3234 24.7485 18.7005 24.335 18.9073 24.2615C19.3193 24.1157 19.6349 23.923 19.8542 23.6834C20.0292 23.4923 20.1469 23.2641 20.2078 22.998C20.2026 22.9568 19.7932 22.3235 19.9625 21.5095C18.3422 20.4391 17.1417 19.5089 16.362 18.7188C15.5839 17.9303 15.1953 17.2365 15.1974 16.6386C14.6682 16.2777 13.876 16.0141 13.2016 15.9397C12.8922 15.9053 12.7078 15.6308 12.7734 15.3532L12.8995 14.8214L11.6099 14.6084V14.6079C11.3776 14.5704 11.2036 14.3662 11.2104 14.1246L11.2573 12.5298C10.7646 12.9954 10.3667 13.5329 10.0682 14.1423C10.013 14.2553 9.91354 14.3459 9.78438 14.3871C4.04271 16.211 1.84063 21.9011 4.00104 27.4027L4.00052 27.4032C4.90937 29.6751 6.12552 33.4443 5.73958 35.4256H7.5849V29.9537C7.5849 29.3246 8.54062 29.3246 8.54062 29.9537V35.4256H10.3229V31.2824C10.3229 30.6532 11.2792 30.6532 11.2792 31.2824V35.4256H12.9099ZM18.9208 42.4563C18.7057 42.5714 18.5703 42.4829 18.4828 42.4621H2.79948C2.12708 42.4621 1.57812 41.9136 1.57812 41.2407V38.4173C1.57812 37.7444 2.12656 37.1959 2.79948 37.1959H3.07344C2.79896 36.323 3.45521 35.4256 4.37448 35.4256H4.76354C4.93177 34.8938 4.89375 34.0287 4.69219 32.9365C4.42552 31.4897 3.86823 29.6902 3.11354 27.7501C0.883333 22.0709 2.94635 16.023 8.74844 13.7438C8.92396 13.6751 9.10937 13.6079 9.30469 13.5423C9.34531 13.5079 9.89062 12.2157 11.4937 11.1188C11.8073 10.9042 12.2615 11.1251 12.238 11.5511L12.174 13.735L13.5583 13.9636C13.8302 14.0084 14.0094 14.2756 13.9458 14.5443H13.9469L13.8198 15.0798C14.6443 15.2516 15.3562 15.5412 15.9937 16.0438C16.1479 16.1652 16.2146 16.3595 16.162 16.5501C16.075 16.8673 16.3682 17.3673 17.0417 18.0496C17.8208 18.8391 19.0682 19.7917 20.7833 20.9074C20.9802 21.0355 21.0516 21.2845 20.9625 21.4933C20.7927 21.8928 20.8901 22.2855 21.1193 22.6725C21.1766 22.7699 21.1958 22.8787 21.1807 22.9824C21.1052 23.5048 20.8969 23.9522 20.5563 24.3246C20.2401 24.6709 19.8161 24.9423 19.2854 25.1386C18.7229 25.5266 18.1479 25.6876 17.5599 25.6214C16.9677 25.5548 16.3854 25.2579 15.813 24.7313L15.8135 24.7308C15.5719 24.5089 15.7292 24.199 15.4068 23.9558C15.276 23.8574 15.088 23.799 14.8437 23.7813C14.7609 23.8037 13.8906 24.5558 12.3516 24.6027C15.1677 27.6266 18.5255 32.0147 16.7885 35.4246C17.3281 35.4246 17.7531 35.3855 18.1927 35.8246C18.5474 36.1792 18.6844 36.7048 18.5302 37.1949C18.9698 37.1949 19.3073 37.1938 19.6667 37.5532C19.8875 37.7746 20.025 38.0798 20.025 38.4162V41.2402C20.024 41.8709 19.5411 42.3964 18.9208 42.4563ZM18.8026 38.1516H2.79948C2.65469 38.1516 2.53438 38.272 2.53438 38.4173V41.2412C2.53438 41.3865 2.65469 41.5069 2.79948 41.5069H18.8026C18.9479 41.5069 19.0682 41.3865 19.0682 41.2412V38.4173C19.0677 38.272 18.9474 38.1516 18.8026 38.1516Z" fill="white"/>
</svg>
