<svg width="42" height="42" viewBox="0 0 42 42" fill="none" xmlns="http://www.w3.org/2000/svg">
<path d="M27.657 37.6914H27.6193L13.3608 36.7383C13.2579 36.7317 13.1591 36.6958 13.0761 36.6347C12.993 36.5736 12.9293 36.4899 12.8923 36.3937C12.8559 36.2967 12.8482 36.1913 12.8702 36.09C12.8921 35.9888 12.9428 35.8961 13.0162 35.8229L16.0477 32.7914L4.39543 14.6398C4.32837 14.5365 4.29875 14.4134 4.31148 14.2909C4.32422 14.1684 4.37855 14.054 4.46543 13.9668C4.55204 13.879 4.66613 13.8237 4.78863 13.81C4.91113 13.7963 5.03463 13.825 5.1385 13.8914L23.2954 25.5437L26.327 22.5121C26.4023 22.4334 26.4998 22.3795 26.6066 22.3573C26.7133 22.3352 26.8242 22.346 26.9247 22.3883C27.0217 22.4256 27.1059 22.4902 27.1671 22.5742C27.2282 22.6583 27.2637 22.7583 27.2693 22.8621L28.2223 37.1152C28.228 37.1923 28.217 37.2698 28.19 37.3422C28.1631 37.4147 28.1208 37.4805 28.0662 37.5352C28.0127 37.5885 27.9487 37.6299 27.8782 37.6568C27.8077 37.6837 27.7323 37.6955 27.657 37.6914ZM14.6154 35.7421L27.0808 36.5768L26.2462 24.1168L23.7477 26.6098C23.6615 26.6962 23.5484 26.7508 23.4271 26.7644C23.3058 26.7781 23.1834 26.7502 23.08 26.6852L6.63543 16.1529L17.1893 32.576C17.2556 32.6799 17.2844 32.8034 17.2707 32.9259C17.2569 33.0484 17.2016 33.1624 17.1139 33.2491L14.6154 35.7421Z" fill="white"/>
<path d="M37.1538 28.188C37.0512 28.1893 36.9503 28.1613 36.8631 28.1072L18.7061 16.4549L15.6746 19.4864C15.6014 19.5598 15.5087 19.6105 15.4075 19.6324C15.3062 19.6544 15.2008 19.6467 15.1038 19.6103C15.0068 19.573 14.9226 19.5084 14.8614 19.4243C14.8003 19.3402 14.7648 19.2402 14.7592 19.1364L13.8061 4.88334C13.8005 4.80622 13.8115 4.7288 13.8384 4.65632C13.8654 4.58385 13.9076 4.51803 13.9623 4.46334C14.0183 4.41058 14.0843 4.36958 14.1565 4.34276C14.2286 4.31594 14.3054 4.30384 14.3823 4.30718L28.6407 5.26026C28.7436 5.26683 28.8425 5.3028 28.9255 5.36389C29.0085 5.42497 29.0723 5.50862 29.1092 5.60488C29.1457 5.70185 29.1534 5.80727 29.1314 5.90851C29.1094 6.00975 29.0587 6.1025 28.9854 6.17565L25.9538 9.20718L37.6061 27.3587C37.6732 27.462 37.7028 27.5852 37.6901 27.7076C37.6773 27.8301 37.623 27.9445 37.5361 28.0318C37.4858 28.0817 37.4261 28.1212 37.3605 28.148C37.2949 28.1748 37.2247 28.1884 37.1538 28.188ZM18.6307 15.2272C18.7339 15.2275 18.8348 15.2574 18.9215 15.3133L35.3661 25.8456L24.8123 9.42257C24.7459 9.3187 24.7172 9.1952 24.7309 9.07269C24.7446 8.95019 24.8 8.83611 24.8877 8.74949L27.3861 6.25642L14.9207 5.4218L15.7554 17.8818L18.2538 15.3887C18.3532 15.2873 18.4887 15.2292 18.6307 15.2272Z" fill="white"/>
</svg>
