<svg width="43" height="43" viewBox="0 0 43 43" fill="none" xmlns="http://www.w3.org/2000/svg">
<path d="M40.6583 38.2194H1.62534C1.40082 38.2194 1.21875 38.0374 1.21875 37.8128C1.21875 37.5882 1.40082 37.4062 1.62534 37.4062H40.6583C40.8829 37.4062 41.0649 37.5882 41.0649 37.8128C41.0649 38.0374 40.8829 38.2194 40.6583 38.2194Z" fill="white"/>
<path d="M39.0306 34.9685H3.25034C3.02582 34.9685 2.84375 34.7865 2.84375 34.5619V12.6058C2.84375 12.4414 2.9428 12.2931 3.0947 12.2301C3.24668 12.1673 3.42152 12.202 3.5378 12.3183L15.4481 24.2286L21.6662 18.0107C21.8248 17.8519 22.0824 17.8519 22.2411 18.0107L31.7119 27.4814L38.7431 20.4502C38.8594 20.3338 39.0345 20.2991 39.1861 20.3621C39.3381 20.425 39.4372 20.5733 39.4372 20.7377V34.5619C39.4372 34.7865 39.2552 34.9685 39.0306 34.9685ZM3.65694 34.1553H38.624V21.7193L31.9993 28.3438C31.8407 28.5027 31.5831 28.5027 31.4244 28.3438L21.9536 18.8731L15.7357 25.0911C15.5769 25.2499 15.3195 25.2499 15.1607 25.0911L3.65694 13.5874V34.1553Z" fill="white"/>
<path d="M14.3005 17.5546C14.1964 17.5546 14.0924 17.515 14.013 17.4356L4.11521 7.5378C3.95639 7.37899 3.95639 7.12153 4.11521 6.9628C4.27402 6.80407 4.53139 6.80407 4.69021 6.9628L14.588 16.8606C14.7468 17.0194 14.7468 17.2769 14.588 17.4356C14.5086 17.515 14.4046 17.5546 14.3005 17.5546Z" fill="white"/>
<path d="M16.602 17.5537C16.4979 17.5537 16.3939 17.5141 16.3144 17.4347C16.1556 17.2759 16.1556 17.0184 16.3144 16.8597L20.5199 12.6542C20.6787 12.4955 20.9361 12.4955 21.0949 12.6542C21.2536 12.813 21.2536 13.0705 21.0949 13.2292L16.8894 17.4347C16.8101 17.5141 16.7061 17.5537 16.602 17.5537Z" fill="white"/>
<path d="M30.5639 20.8065C30.4599 20.8065 30.3558 20.7668 30.2765 20.6874L22.8183 13.2292C22.6595 13.0704 22.6595 12.8129 22.8183 12.6542C22.977 12.4955 23.2346 12.4955 23.3933 12.6542L30.8514 20.1124C31.0102 20.2712 31.0102 20.5286 30.8514 20.6874C30.7721 20.7668 30.668 20.8065 30.5639 20.8065Z" fill="white"/>
<path d="M32.8636 20.8064C32.7596 20.8064 32.6554 20.7667 32.5761 20.6872C32.4173 20.5285 32.4173 20.2711 32.5761 20.1123L37.5947 15.0937C37.7534 14.9349 38.011 14.9349 38.1696 15.0937C38.3285 15.2525 38.3285 15.5099 38.1696 15.6687L33.1511 20.6872C33.0717 20.7667 32.9676 20.8064 32.8636 20.8064Z" fill="white"/>
<path d="M31.7127 23.5835C30.5917 23.5835 29.6797 22.6715 29.6797 21.5505C29.6797 20.4296 30.5917 19.5176 31.7127 19.5176C32.8336 19.5176 33.7456 20.4296 33.7456 21.5505C33.7456 22.6715 32.8336 23.5835 31.7127 23.5835ZM31.7127 20.3308C31.0401 20.3308 30.4929 20.878 30.4929 21.5505C30.4929 22.2231 31.0401 22.7703 31.7127 22.7703C32.3852 22.7703 32.9324 22.2231 32.9324 21.5505C32.9324 20.878 32.3852 20.3308 31.7127 20.3308Z" fill="white"/>
<path d="M39.033 16.2652C37.912 16.2652 37 15.3532 37 14.2322C37 13.1112 37.912 12.1992 39.033 12.1992C40.1539 12.1992 41.0659 13.1112 41.0659 14.2322C41.0659 15.3532 40.1539 16.2652 39.033 16.2652ZM39.033 13.0124C38.3604 13.0124 37.8132 13.5596 37.8132 14.2322C37.8132 14.9048 38.3604 15.452 39.033 15.452C39.7056 15.452 40.2527 14.9048 40.2527 14.2322C40.2527 13.5596 39.7056 13.0124 39.033 13.0124Z" fill="white"/>
<path d="M15.4509 20.3296C14.33 20.3296 13.418 19.4176 13.418 18.2966C13.418 17.1757 14.33 16.2637 15.4509 16.2637C16.5719 16.2637 17.4839 17.1757 17.4839 18.2966C17.4839 19.4176 16.5719 20.3296 15.4509 20.3296ZM15.4509 17.0769C14.7783 17.0769 14.2312 17.6241 14.2312 18.2966C14.2312 18.9692 14.7783 19.5164 15.4509 19.5164C16.1235 19.5164 16.6707 18.9692 16.6707 18.2966C16.6707 17.6241 16.1235 17.0769 15.4509 17.0769Z" fill="white"/>
<path d="M3.25172 8.13234C2.13074 8.13234 1.21875 7.22035 1.21875 6.09937C1.21875 4.9784 2.13074 4.06641 3.25172 4.06641C4.3727 4.06641 5.28468 4.9784 5.28468 6.09937C5.28468 7.22035 4.3727 8.13234 3.25172 8.13234ZM3.25172 4.87959C2.57913 4.87959 2.03194 5.42679 2.03194 6.09937C2.03194 6.77196 2.57913 7.31915 3.25172 7.31915C3.9243 7.31915 4.4715 6.77196 4.4715 6.09937C4.4715 5.42679 3.9243 4.87959 3.25172 4.87959Z" fill="white"/>
<path d="M21.9548 13.8237C20.8339 13.8237 19.9219 12.9118 19.9219 11.7908C19.9219 10.6698 20.8339 9.75781 21.9548 9.75781C23.0758 9.75781 23.9878 10.6698 23.9878 11.7908C23.9878 12.9118 23.0758 13.8237 21.9548 13.8237ZM21.9548 10.571C21.2823 10.571 20.7351 11.1182 20.7351 11.7908C20.7351 12.4634 21.2823 13.0106 21.9548 13.0106C22.6274 13.0106 23.1746 12.4634 23.1746 11.7908C23.1746 11.1182 22.6274 10.571 21.9548 10.571Z" fill="white"/>
</svg>
