<svg width="52" height="52" viewBox="0 0 52 52" fill="none" xmlns="http://www.w3.org/2000/svg">
<path d="M15.1874 30.5293H8.96818C8.77058 30.5293 8.60938 30.6905 8.60938 30.8881V47.2473C8.60938 47.4449 8.77058 47.6061 8.96818 47.6061H15.1874C15.385 47.6061 15.5462 47.4449 15.5462 47.2473V30.8881C15.5462 30.6905 15.385 30.5293 15.1874 30.5293ZM14.8286 46.8885H9.32698V31.2469H14.8286V46.8885Z" fill="white"/>
<path d="M24.7811 23.5352H18.5619C18.3643 23.5352 18.2031 23.6964 18.2031 23.894V47.2472C18.2031 47.4448 18.3643 47.606 18.5619 47.606H24.7811C24.9787 47.606 25.1399 47.4448 25.1399 47.2472V23.894C25.1399 23.6964 24.9787 23.5352 24.7811 23.5352ZM24.4223 46.8884H18.9207V24.2528H24.4223V46.8884Z" fill="white"/>
<path d="M34.3827 27.9707H28.1635C27.9659 27.9707 27.8047 28.1319 27.8047 28.3295V47.2471C27.8047 47.4447 27.9659 47.6059 28.1635 47.6059H34.3827C34.5803 47.6059 34.7415 47.4447 34.7415 47.2471V28.3295C34.7415 28.1319 34.5803 27.9707 34.3827 27.9707ZM34.0239 46.8883H28.5223V28.6883H34.0239V46.8883Z" fill="white"/>
<path d="M43.9764 18.4238H37.7572C37.5596 18.4238 37.3984 18.585 37.3984 18.7826V47.2474C37.3984 47.445 37.5596 47.6062 37.7572 47.6062H43.9764C44.174 47.6062 44.3352 47.445 44.3352 47.2474V18.7826C44.3352 18.585 44.174 18.4238 43.9764 18.4238ZM43.6176 46.8886H38.116V19.1414H43.6176V46.8886Z" fill="white"/>
<path d="M33.108 18.9846L39.5664 12.5262L41.3136 14.2734C41.402 14.3618 41.5372 14.3982 41.662 14.367C41.7868 14.3358 41.8804 14.237 41.9168 14.1122L44.2568 5.37097C44.288 5.24617 44.2568 5.11617 44.1632 5.02257C44.0748 4.93417 43.9396 4.89777 43.8148 4.92897L35.0736 7.26897C34.9488 7.30017 34.8552 7.39897 34.8188 7.52377C34.7876 7.64857 34.8188 7.77857 34.9124 7.87217L37.0132 9.97297L32.5984 14.3878C31.4128 15.5734 29.572 15.8178 28.1212 14.991L24.0288 12.6562C22.2972 11.6682 20.0976 11.9646 18.6884 13.3738L16.3692 15.693C16.208 15.8542 16.1456 16.0778 16.1976 16.2962L16.806 18.9534C16.858 19.1822 17.0348 19.3694 17.2584 19.4318C17.4872 19.4994 17.7316 19.4318 17.898 19.2654L19.198 17.9654C20.3836 16.7798 22.2244 16.5354 23.6752 17.3622L27.7676 19.697C28.454 20.087 29.208 20.2794 29.962 20.2794C31.1112 20.2846 32.25 19.8374 33.108 18.9846ZM28.1212 19.0834L24.0288 16.7486C23.3424 16.3586 22.5884 16.1662 21.8344 16.1662C20.68 16.1662 19.5412 16.6134 18.6884 17.4662L17.4768 18.6778L16.9048 16.1766L19.1928 13.8886C20.3784 12.703 22.2192 12.4586 23.67 13.2854L27.7624 15.6202C29.494 16.6082 31.6936 16.3118 33.1028 14.9026L37.7672 10.2382C37.9076 10.0978 37.9076 9.86897 37.7672 9.72857L35.8536 7.81497L43.3936 5.79217L41.3708 13.3322L39.8108 11.7722C39.7432 11.7046 39.6548 11.6682 39.556 11.6682C39.4624 11.6682 39.3688 11.7046 39.3012 11.7722L32.5984 18.4802C31.4128 19.6606 29.572 19.9102 28.1212 19.0834Z" fill="white"/>
</svg>
